# xmcd CD database file
#
# Track frame offsets:
#	150
#	28020
#	43668
#	66830
#	94360
#	117698
#	144130
#	160170
#	181328
#	207993
#
# Disc length: 3077 seconds
#
# Revision: 1
# Processed by: cddbd v1.5.2PL0 Copyright (c) Steve Scherf et al.
# Submitted via: CDex 1.51
#
DISCID=8e0c030a
DTITLE=Bill Evans Trio - Explorations
DYEAR=1961
DGENRE=Jazz
TTITLE0=Israel
TTITLE1=Haunted Heart
TTITLE2=Beautiful Love (take 2)
TTITLE3=Beautiful Love (take 1)
TTITLE4=Elsa
TTITLE5=Nardis
TTITLE6=How Deep Is The Ocean
TTITLE7=I Wish I Knew
TTITLE8=Sweet and Lovely
TTITLE9=The Boy Next Door
EXTD=YEAR: 1961
EXTT0=
EXTT1=
EXTT2=
EXTT3=
EXTT4=
EXTT5=
EXTT6=
EXTT7=
EXTT8=
EXTT9=
PLAYORDER=
